<?xml version="1.0" encoding="utf-8"?>
<!-- Generator: Adobe Illustrator 16.0.3, SVG Export Plug-In . SVG Version: 6.00 Build 0)  -->
<!DOCTYPE svg PUBLIC "-//W3C//DTD SVG 1.1//EN" "http://www.w3.org/Graphics/SVG/1.1/DTD/svg11.dtd">
<svg version="1.1" id="圖層_1" xmlns="http://www.w3.org/2000/svg" xmlns:xlink="http://www.w3.org/1999/xlink" x="0px" y="0px"
	 width="49.327px" height="33.219px" viewBox="0 0 49.327 33.219" enable-background="new 0 0 49.327 33.219" xml:space="preserve">
<linearGradient id="SVGID_1_" gradientUnits="userSpaceOnUse" x1="21.248" y1="31.7188" x2="21.248" y2="1.501">
	<stop  offset="0" style="stop-color:#EB7260"/>
	<stop  offset="1" style="stop-color:#E22931"/>
</linearGradient>
<polygon fill="url(#SVGID_1_)" stroke="#B72330" stroke-miterlimit="10" points="24.594,5.839 21.248,1.5 17.902,5.839 
	19.315,5.839 19.315,31.719 23.181,31.719 23.181,5.839 "/>
<linearGradient id="SVGID_2_" gradientUnits="userSpaceOnUse" x1="9.085" y1="31.7188" x2="9.085" y2="11.7021">
	<stop  offset="0" style="stop-color:#EB7260"/>
	<stop  offset="1" style="stop-color:#E22931"/>
</linearGradient>
<polygon fill="url(#SVGID_2_)" stroke="#B72330" stroke-miterlimit="10" points="6.021,13.131 6.021,11.702 1.682,15.048 
	6.021,18.393 6.021,16.963 12.657,16.963 12.657,31.719 16.489,31.719 16.489,13.131 "/>
<linearGradient id="SVGID_3_" gradientUnits="userSpaceOnUse" x1="40.1084" y1="31.7188" x2="40.1084" y2="11.7021">
	<stop  offset="0" style="stop-color:#EB7260"/>
	<stop  offset="1" style="stop-color:#E22931"/>
</linearGradient>
<polygon fill="url(#SVGID_3_)" stroke="#B72330" stroke-miterlimit="10" points="47.52,15.048 43.181,11.702 43.181,13.131 
	32.698,13.131 32.698,31.719 36.53,31.719 36.53,16.963 43.181,16.963 43.181,18.393 "/>
<linearGradient id="SVGID_4_" gradientUnits="userSpaceOnUse" x1="27.9395" y1="31.7188" x2="27.9395" y2="1.5015">
	<stop  offset="0" style="stop-color:#EB7260"/>
	<stop  offset="1" style="stop-color:#E22931"/>
</linearGradient>
<polygon fill="url(#SVGID_4_)" stroke="#B72330" stroke-miterlimit="10" points="31.285,5.84 27.939,1.501 24.594,5.84 26.007,5.84 
	26.007,31.719 29.872,31.719 29.872,5.84 "/>
</svg>
