<?xml version="1.0" encoding="utf-8"?>
<!-- Generator: Adobe Illustrator 16.0.3, SVG Export Plug-In . SVG Version: 6.00 Build 0)  -->
<!DOCTYPE svg PUBLIC "-//W3C//DTD SVG 1.1//EN" "http://www.w3.org/Graphics/SVG/1.1/DTD/svg11.dtd">
<svg version="1.1" id="圖層_1" xmlns="http://www.w3.org/2000/svg" xmlns:xlink="http://www.w3.org/1999/xlink" x="0px" y="0px"
	 width="33.25px" height="41.75px" viewBox="5.41 -3.641 33.25 41.75" enable-background="new 5.41 -3.641 33.25 41.75"
	 xml:space="preserve">
<linearGradient id="SVGID_1_" gradientUnits="userSpaceOnUse" x1="294.2009" y1="-393.8403" x2="294.2009" y2="-363.6216" gradientTransform="matrix(-2.559973e-007 -1 1 -2.384186e-007 400.4373 311.3552)">
	<stop  offset="0" style="stop-color:#EB7260"/>
	<stop  offset="1" style="stop-color:#E22931"/>
</linearGradient>
<polygon fill="url(#SVGID_1_)" stroke="#B72330" stroke-miterlimit="10" points="32.477,15.224 6.597,15.224 6.597,19.088 
	32.477,19.088 32.477,20.502 36.816,17.156 32.477,13.811 "/>
<linearGradient id="SVGID_2_" gradientUnits="userSpaceOnUse" x1="282.0388" y1="-393.8403" x2="282.0388" y2="-373.8228" gradientTransform="matrix(-2.559973e-007 -1 1 -2.384186e-007 400.4373 311.3552)">
	<stop  offset="0" style="stop-color:#EB7260"/>
	<stop  offset="1" style="stop-color:#E22931"/>
</linearGradient>
<polygon fill="url(#SVGID_2_)" stroke="#B72330" stroke-miterlimit="10" points="25.185,21.915 6.597,21.915 6.597,25.747 
	21.353,25.747 21.353,32.383 19.924,32.383 23.268,36.723 26.615,32.383 25.185,32.383 "/>
<linearGradient id="SVGID_3_" gradientUnits="userSpaceOnUse" x1="306.4509" y1="-393.8403" x2="306.4509" y2="-373.8228" gradientTransform="matrix(-2.559973e-007 -1 1 -2.384186e-007 400.4373 311.3552)">
	<stop  offset="0" style="stop-color:#EB7260"/>
	<stop  offset="1" style="stop-color:#E22931"/>
</linearGradient>
<polygon fill="url(#SVGID_3_)" stroke="#B72330" stroke-miterlimit="10" points="19.924,1.835 21.353,1.835 21.353,8.485 
	6.597,8.485 6.597,12.317 25.185,12.317 25.185,1.835 26.615,1.835 23.268,-2.504 "/>
</svg>
