<?xml version="1.0" encoding="utf-8"?>
<!-- Generator: Adobe Illustrator 16.0.3, SVG Export Plug-In . SVG Version: 6.00 Build 0)  -->
<!DOCTYPE svg PUBLIC "-//W3C//DTD SVG 1.1//EN" "http://www.w3.org/Graphics/SVG/1.1/DTD/svg11.dtd">
<svg version="1.1" id="圖層_1" xmlns="http://www.w3.org/2000/svg" xmlns:xlink="http://www.w3.org/1999/xlink" x="0px" y="0px"
	 width="40px" height="40px" viewBox="0 0 40 40" enable-background="new 0 0 40 40" xml:space="preserve">
<g>
	<g>
		<linearGradient id="SVGID_1_" gradientUnits="userSpaceOnUse" x1="29.5098" y1="5.7544" x2="38.8232" y2="5.7544">
			<stop  offset="0" style="stop-color:#EB7260"/>
			<stop  offset="1" style="stop-color:#E22931"/>
		</linearGradient>
		<polygon fill="url(#SVGID_1_)" stroke="#B72330" stroke-miterlimit="10" points="37.626,10.362 38.823,1.097 29.558,2.294 
			31.262,3.998 29.51,5.751 34.17,10.412 35.922,8.659 		"/>
		<linearGradient id="SVGID_2_" gradientUnits="userSpaceOnUse" x1="1" y1="34.2646" x2="10.3125" y2="34.2646">
			<stop  offset="0" style="stop-color:#EB7260"/>
			<stop  offset="1" style="stop-color:#E22931"/>
		</linearGradient>
		<polygon fill="url(#SVGID_2_)" stroke="#B72330" stroke-miterlimit="10" points="2.197,29.658 1,38.921 10.265,37.726 
			8.561,36.021 10.313,34.269 5.654,29.607 3.9,31.361 		"/>
		<linearGradient id="SVGID_3_" gradientUnits="userSpaceOnUse" x1="7.4111" y1="28.9678" x2="14.4951" y2="28.9678">
			<stop  offset="0" style="stop-color:#EB7260"/>
			<stop  offset="1" style="stop-color:#E22931"/>
		</linearGradient>
		<polygon fill="url(#SVGID_3_)" stroke="#B72330" stroke-miterlimit="10" points="12.071,32.51 7.411,27.85 9.834,25.425 
			14.495,30.085 		"/>
		<linearGradient id="SVGID_4_" gradientUnits="userSpaceOnUse" x1="11.5928" y1="24.7861" x2="18.6777" y2="24.7861">
			<stop  offset="0" style="stop-color:#EB7260"/>
			<stop  offset="1" style="stop-color:#E22931"/>
		</linearGradient>
		<polygon fill="url(#SVGID_4_)" stroke="#B72330" stroke-miterlimit="10" points="16.254,28.328 11.593,23.667 14.018,21.244 
			18.678,25.903 		"/>
		<linearGradient id="SVGID_5_" gradientUnits="userSpaceOnUse" x1="21.1445" y1="15.2329" x2="28.2295" y2="15.2329">
			<stop  offset="0" style="stop-color:#EB7260"/>
			<stop  offset="1" style="stop-color:#E22931"/>
		</linearGradient>
		<polygon fill="url(#SVGID_5_)" stroke="#B72330" stroke-miterlimit="10" points="25.806,18.775 21.145,14.115 23.569,11.69 
			28.229,16.351 		"/>
		<linearGradient id="SVGID_6_" gradientUnits="userSpaceOnUse" x1="25.3281" y1="11.0508" x2="32.4121" y2="11.0508">
			<stop  offset="0" style="stop-color:#EB7260"/>
			<stop  offset="1" style="stop-color:#E22931"/>
		</linearGradient>
		<polygon fill="url(#SVGID_6_)" stroke="#B72330" stroke-miterlimit="10" points="29.988,14.593 25.328,9.933 27.752,7.509 
			32.412,12.168 		"/>
	</g>
	<g>
		<linearGradient id="SVGID_7_" gradientUnits="userSpaceOnUse" x1="29.6855" y1="34.3047" x2="39" y2="34.3047">
			<stop  offset="0" style="stop-color:#EB7260"/>
			<stop  offset="1" style="stop-color:#E22931"/>
		</linearGradient>
		<polygon fill="url(#SVGID_7_)" stroke="#B72330" stroke-miterlimit="10" points="29.735,37.764 39,38.962 37.803,29.696 
			36.1,31.4 34.346,29.648 29.686,34.307 31.439,36.061 		"/>
		<linearGradient id="SVGID_8_" gradientUnits="userSpaceOnUse" x1="1.0391" y1="5.6563" x2="10.3535" y2="5.6563">
			<stop  offset="0" style="stop-color:#EB7260"/>
			<stop  offset="1" style="stop-color:#E22931"/>
		</linearGradient>
		<polygon fill="url(#SVGID_8_)" stroke="#B72330" stroke-miterlimit="10" points="10.302,2.197 1.039,1 2.234,10.265 3.939,8.561 
			5.69,10.313 10.354,5.654 8.598,3.901 		"/>
		<linearGradient id="SVGID_9_" gradientUnits="userSpaceOnUse" x1="7.4492" y1="10.9531" x2="14.5332" y2="10.9531">
			<stop  offset="0" style="stop-color:#EB7260"/>
			<stop  offset="1" style="stop-color:#E22931"/>
		</linearGradient>
		<polygon fill="url(#SVGID_9_)" stroke="#B72330" stroke-miterlimit="10" points="7.449,12.071 12.109,7.411 14.533,9.835 
			9.875,14.496 		"/>
		<linearGradient id="SVGID_10_" gradientUnits="userSpaceOnUse" x1="11.6318" y1="15.1357" x2="18.7168" y2="15.1357">
			<stop  offset="0" style="stop-color:#EB7260"/>
			<stop  offset="1" style="stop-color:#E22931"/>
		</linearGradient>
		<polygon fill="url(#SVGID_10_)" stroke="#B72330" stroke-miterlimit="10" points="11.632,16.254 16.292,11.594 18.717,14.018 
			14.057,18.678 		"/>
		<linearGradient id="SVGID_11_" gradientUnits="userSpaceOnUse" x1="21.3232" y1="24.8257" x2="28.4072" y2="24.8257">
			<stop  offset="0" style="stop-color:#EB7260"/>
			<stop  offset="1" style="stop-color:#E22931"/>
		</linearGradient>
		<polygon fill="url(#SVGID_11_)" stroke="#B72330" stroke-miterlimit="10" points="21.323,25.943 25.982,21.283 28.407,23.707 
			23.746,28.368 		"/>
		<linearGradient id="SVGID_12_" gradientUnits="userSpaceOnUse" x1="25.5049" y1="29.0078" x2="32.5898" y2="29.0078">
			<stop  offset="0" style="stop-color:#EB7260"/>
			<stop  offset="1" style="stop-color:#E22931"/>
		</linearGradient>
		<polygon fill="url(#SVGID_12_)" stroke="#B72330" stroke-miterlimit="10" points="25.505,30.126 30.166,25.466 32.59,27.89 
			27.929,32.55 		"/>
	</g>
</g>
</svg>
