<?xml version="1.0" encoding="utf-8"?>
<!-- Generator: Adobe Illustrator 16.0.3, SVG Export Plug-In . SVG Version: 6.00 Build 0)  -->
<!DOCTYPE svg PUBLIC "-//W3C//DTD SVG 1.1//EN" "http://www.w3.org/Graphics/SVG/1.1/DTD/svg11.dtd">
<svg version="1.1" id="圖層_1" xmlns="http://www.w3.org/2000/svg" xmlns:xlink="http://www.w3.org/1999/xlink" x="0px" y="0px"
	 width="43.32px" height="33.219px" viewBox="0 0 43.32 33.219" enable-background="new 0 0 43.32 33.219" xml:space="preserve">
<linearGradient id="SVGID_1_" gradientUnits="userSpaceOnUse" x1="294.2" y1="-393.8398" x2="294.2" y2="-363.6206" gradientTransform="matrix(1 0 0 1 -272.54 395.8398)">
	<stop  offset="0" style="stop-color:#EB7260"/>
	<stop  offset="1" style="stop-color:#E22931"/>
</linearGradient>
<polygon fill="url(#SVGID_1_)" stroke="#B72330" stroke-miterlimit="10" points="23.593,27.88 23.593,2 19.728,2 19.728,27.88 
	18.314,27.88 21.66,32.219 25.006,27.88 "/>
<linearGradient id="SVGID_2_" gradientUnits="userSpaceOnUse" x1="282.0369" y1="-393.8398" x2="282.0369" y2="-373.8218" gradientTransform="matrix(1 0 0 1 -272.54 395.8398)">
	<stop  offset="0" style="stop-color:#EB7260"/>
	<stop  offset="1" style="stop-color:#E22931"/>
</linearGradient>
<polygon fill="url(#SVGID_2_)" stroke="#B72330" stroke-miterlimit="10" points="16.901,20.588 16.901,2 13.069,2 13.069,16.756 
	6.433,16.756 6.433,15.326 2.094,18.671 6.433,22.018 6.433,20.588 "/>
<linearGradient id="SVGID_3_" gradientUnits="userSpaceOnUse" x1="306.449" y1="-393.8398" x2="306.449" y2="-373.8218" gradientTransform="matrix(1 0 0 1 -272.54 395.8398)">
	<stop  offset="0" style="stop-color:#EB7260"/>
	<stop  offset="1" style="stop-color:#E22931"/>
</linearGradient>
<polygon fill="url(#SVGID_3_)" stroke="#B72330" stroke-miterlimit="10" points="36.981,15.326 36.981,16.756 30.331,16.756 
	30.331,2 26.499,2 26.499,20.588 36.981,20.588 36.981,22.018 41.32,18.671 "/>
</svg>
